<?xml version="1.0" encoding="utf-8"?>
<!-- Generator: Adobe Illustrator 19.0.0, SVG Export Plug-In . SVG Version: 6.00 Build 0)  -->
<svg version="1.1" id="Layer_1" xmlns="http://www.w3.org/2000/svg" xmlns:xlink="http://www.w3.org/1999/xlink" x="0px" y="0px"
	 viewBox="116 -206 1024 1024" style="enable-background:new 116 -206 1024 1024;" xml:space="preserve">
<style type="text/css">
	.st0{fill:#FFFFFF;}
	.st1{fill:#0C0C0A;}
</style>
<g id="Guides">
</g>
<g id="Layer_2">
	<g>
		<g>
			<g>
				<path class="st0" d="M137.5-205.9c-0.1-0.1-0.2-0.1-0.3-0.1h-7.6c-0.1,0-0.2,0.1-0.2,0.2v18.9c0,0.1,0.1,0.2,0.2,0.2h2.8
					c0.1,0,0.2-0.1,0.2-0.2v-5.4c0-0.1,0.1-0.2,0.2-0.2h1.5c0.1,0,0.2,0.1,0.2,0.2l1.5,5.4c0,0.1,0.1,0.2,0.2,0.2h2.8
					c0.1,0,0.2-0.1,0.1-0.2l-1.5-5.4c0-0.1,0-0.3,0.1-0.3l1.3-1.5c0.1-0.1,0.1-0.2,0.1-0.3v-9.4c0-0.1-0.1-0.3-0.1-0.3L137.5-205.9z
					 M136-196.5c0,0.1-0.1,0.3-0.1,0.3l-0.4,0.4c-0.1,0.1-0.2,0.1-0.3,0.1h-2.4c-0.1,0-0.2-0.1-0.2-0.2v-6.8c0-0.1,0.1-0.2,0.2-0.2
					h2.4c0.1,0,0.3,0.1,0.3,0.1l0.4,0.4c0.1,0.1,0.1,0.2,0.1,0.3L136-196.5L136-196.5z M148-206h-2.7c-0.1,0-0.2,0.1-0.2,0.2
					l-4.5,18.9c0,0.1,0,0.2,0.2,0.2h2.9c0.1,0,0.2-0.1,0.2-0.2l0.7-3.6c0-0.1,0.1-0.1,0.2-0.1l4.4,3.6c0.1,0.1,0.2,0.1,0.2,0.2
					c0,0,0.1,0,0.2,0h2.9c0.1,0,0.2-0.1,0.2-0.2l-4.5-18.9C148.2-205.9,148.1-206,148-206z M148.4-191.1l-3-2.6
					c-0.1-0.1-0.1-0.2-0.1-0.2s0-0.1,0.1-0.2l1.3-6.1c0-0.1,0.1-0.1,0.1,0l1.3,6.1c0,0.1,0.1,0.3,0.1,0.4l0.5,2.6
					C148.6-191.1,148.5-191.1,148.4-191.1z M162.9-206h-8.5c-0.1,0-0.2,0.1-0.2,0.2v18.9c0,0.1,0.1,0.2,0.2,0.2h2.8
					c0.1,0,0.2-0.1,0.2-0.2v-7.7c0-0.1,0.1-0.2,0.2-0.2h3.8c0.1,0,0.2-0.1,0.2-0.2v-2.7c0-0.1-0.1-0.2-0.2-0.2h-3.8
					c-0.1,0-0.2-0.1-0.2-0.2v-4.5c0-0.1,0.1-0.2,0.2-0.2h5.3c0.1,0,0.2-0.1,0.2-0.2v-2.7C163.1-205.9,163-206,162.9-206z
					 M174.3-205.8c0-0.1-0.1-0.2-0.2-0.2h-9.5c-0.1,0-0.2,0.1-0.2,0.2v2.7c0,0.1,0.1,0.2,0.2,0.2h3.1c0.1,0,0.2,0.1,0.2,0.2v15.7
					c0,0.1,0.1,0.2,0.2,0.2h2.8c0.1,0,0.2-0.1,0.2-0.2v-15.7c0-0.1,0.1-0.2,0.2-0.2h3.4c0.1,0,0.2-0.1,0.2-0.2L174.3-205.8z
					 M123-197.1l4.2-8.7c0-0.1,0-0.2-0.1-0.2h-3.2c-0.1,0-0.2,0.1-0.3,0.2l-4.4,8.4c0,0.1-0.1,0.1-0.1,0v-8.4c0-0.1-0.1-0.2-0.2-0.2
					h-2.8c-0.1,0-0.2,0.1-0.2,0.2v18.9c0,0.1,0.1,0.2,0.2,0.2h2.8c0.1,0,0.2-0.1,0.2-0.2v-3.9c0-0.1,0-0.3,0.1-0.4l1.3-2.4
					c0.1-0.1,0.1-0.1,0.2,0l2.9,6.7c0,0.1,0.2,0.2,0.3,0.2h3.1c0.1,0,0.2-0.1,0.1-0.2l-4.2-9.8C122.9-196.9,122.9-197,123-197.1z"/>
			</g>
		</g>
		<g>
			<path class="st0" d="M194.9-186.9c0,0.1,0.1,0.2,0.2,0.2h8.8c0.1,0,0.2-0.1,0.2-0.2v-2.7c0-0.1-0.1-0.2-0.2-0.2h-5.6
				c-0.1,0-0.2-0.1-0.2-0.2v-4.7c0-0.1,0.1-0.2,0.2-0.2h4.1c0.1,0,0.2-0.1,0.2-0.2v-2.7c0-0.1-0.1-0.2-0.2-0.2h-4.1
				c-0.1,0-0.2-0.1-0.2-0.2v-4.4c0-0.1,0.1-0.2,0.2-0.2h5.6c0.1,0,0.2-0.1,0.2-0.2v-2.7c0-0.1-0.1-0.2-0.2-0.2h-8.8
				c-0.1,0-0.2,0.1-0.2,0.2V-186.9z"/>
			<path class="st0" d="M206.2-206c-0.1,0-0.2,0.1-0.2,0.2v18.9c0,0.1,0.1,0.2,0.2,0.2h2.8c0.1,0,0.2-0.1,0.2-0.2v-5.4
				c0-0.1,0.1-0.2,0.2-0.2h1.5c0.1,0,0.2,0.1,0.2,0.2l1.5,5.4c0,0.1,0.1,0.2,0.2,0.2h2.8c0.1,0,0.2-0.1,0.1-0.2l-1.5-5.4
				c0-0.1,0-0.3,0.1-0.3l1.3-1.5c0.1-0.1,0.1-0.2,0.1-0.3v-9.4c0-0.1-0.1-0.3-0.1-0.3l-1.6-1.6c-0.1-0.1-0.2-0.1-0.3-0.1H206.2z
				 M212.7-196.5c0,0.1-0.1,0.3-0.1,0.3l-0.4,0.4c-0.1,0.1-0.2,0.1-0.3,0.1h-2.4c-0.1,0-0.2-0.1-0.2-0.2v-6.8c0-0.1,0.1-0.2,0.2-0.2
				h2.4c0.1,0,0.3,0.1,0.3,0.1l0.4,0.4c0.1,0.1,0.1,0.2,0.1,0.3V-196.5z"/>
			<path class="st0" d="M229-205.8c0-0.1,0-0.2-0.1-0.2h-3.2c-0.1,0-0.2,0.1-0.3,0.2l-4.4,8.4c0,0.1-0.1,0.1-0.1,0v-8.4
				c0-0.1-0.1-0.2-0.2-0.2H218c-0.1,0-0.2,0.1-0.2,0.2v18.9c0,0.1,0.1,0.2,0.2,0.2h2.8c0.1,0,0.2-0.1,0.2-0.2v-3.9
				c0-0.1,0-0.3,0.1-0.4l1.3-2.4c0.1-0.1,0.1-0.1,0.2,0l2.9,6.7c0,0.1,0.2,0.2,0.3,0.2h3.1c0.1,0,0.2-0.1,0.1-0.2l-4.2-9.8
				c0-0.1,0-0.3,0-0.4L229-205.8z"/>
			<path class="st0" d="M187.3-192.3C187.3-192.2,187.2-192.2,187.3-192.3l-1.5-4.7c0-0.1,0-0.3,0-0.4l2-8.4c0-0.1,0-0.2-0.1-0.2
				h-2.2c-0.1,0-0.2,0.1-0.2,0.2l-1,3.9c0,0.1-0.1,0.1-0.1,0l-0.9-3.9c0-0.1-0.1-0.2-0.2-0.2h-2.2c-0.1,0-0.2,0.1-0.2,0.2l2,8.4
				c0,0.1,0,0.3,0,0.4l-1.2,4.7c0,0.1-0.1,0.1-0.1,0l-2.9-13.5c0-0.1-0.1-0.2-0.2-0.2h-2.9c-0.1,0-0.2,0.1-0.2,0.2l4.3,18.9
				c0,0.1,0.1,0.2,0.2,0.2h2.7c0.1,0,0.2-0.1,0.3-0.2l1.5-4.8c0-0.1,0.1-0.1,0.1,0l1.5,4.8c0,0.1,0.1,0.2,0.3,0.2h2.7
				c0.1,0,0.2-0.1,0.2-0.2l4.5-18.9c0-0.1,0-0.2-0.2-0.2h-2.9c-0.1,0-0.2,0.1-0.2,0.2L187.3-192.3z"/>
		</g>
	</g>
	<path class="st0" d="M316-190h28v2h-28V-190z"/>
	<path class="st0" d="M316-198h28v2h-28V-198z"/>
	<path class="st0" d="M316-206h28v2h-28V-206z"/>
	<path class="st0" d="M316-190h28v2h-28V-190z"/>
	<g>
		<g>
			<g>
				<path class="st1" d="M137.5-155.9c-0.1-0.1-0.2-0.1-0.3-0.1h-7.6c-0.1,0-0.2,0.1-0.2,0.2v18.9c0,0.1,0.1,0.2,0.2,0.2h2.8
					c0.1,0,0.2-0.1,0.2-0.2v-5.4c0-0.1,0.1-0.2,0.2-0.2h1.5c0.1,0,0.2,0.1,0.2,0.2l1.5,5.4c0,0.1,0.1,0.2,0.2,0.2h2.8
					c0.1,0,0.2-0.1,0.1-0.2l-1.5-5.4c0-0.1,0-0.3,0.1-0.3l1.3-1.5c0.1-0.1,0.1-0.2,0.1-0.3v-9.4c0-0.1-0.1-0.3-0.1-0.3L137.5-155.9z
					 M136-146.5c0,0.1-0.1,0.3-0.1,0.3l-0.4,0.4c-0.1,0.1-0.2,0.1-0.3,0.1h-2.4c-0.1,0-0.2-0.1-0.2-0.2v-6.8c0-0.1,0.1-0.2,0.2-0.2
					h2.4c0.1,0,0.3,0.1,0.3,0.1l0.4,0.4c0.1,0.1,0.1,0.2,0.1,0.3L136-146.5L136-146.5z M148-156h-2.7c-0.1,0-0.2,0.1-0.2,0.2
					l-4.5,18.9c0,0.1,0,0.2,0.2,0.2h2.9c0.1,0,0.2-0.1,0.2-0.2l0.7-3.6c0-0.1,0.1-0.1,0.2-0.1l4.4,3.6c0.1,0.1,0.2,0.1,0.2,0.2
					c0,0,0.1,0,0.2,0h2.9c0.1,0,0.2-0.1,0.2-0.2l-4.5-18.9C148.2-155.9,148.1-156,148-156z M148.4-141.1l-3-2.6
					c-0.1-0.1-0.1-0.2-0.1-0.2s0-0.1,0.1-0.2l1.3-6.1c0-0.1,0.1-0.1,0.1,0l1.3,6.1c0,0.1,0.1,0.3,0.1,0.4l0.5,2.6
					C148.6-141.1,148.5-141.1,148.4-141.1z M162.9-156h-8.5c-0.1,0-0.2,0.1-0.2,0.2v18.9c0,0.1,0.1,0.2,0.2,0.2h2.8
					c0.1,0,0.2-0.1,0.2-0.2v-7.7c0-0.1,0.1-0.2,0.2-0.2h3.8c0.1,0,0.2-0.1,0.2-0.2v-2.7c0-0.1-0.1-0.2-0.2-0.2h-3.8
					c-0.1,0-0.2-0.1-0.2-0.2v-4.5c0-0.1,0.1-0.2,0.2-0.2h5.3c0.1,0,0.2-0.1,0.2-0.2v-2.7C163.1-155.9,163-156,162.9-156z
					 M174.3-155.8c0-0.1-0.1-0.2-0.2-0.2h-9.5c-0.1,0-0.2,0.1-0.2,0.2v2.7c0,0.1,0.1,0.2,0.2,0.2h3.1c0.1,0,0.2,0.1,0.2,0.2v15.7
					c0,0.1,0.1,0.2,0.2,0.2h2.8c0.1,0,0.2-0.1,0.2-0.2v-15.7c0-0.1,0.1-0.2,0.2-0.2h3.4c0.1,0,0.2-0.1,0.2-0.2L174.3-155.8z
					 M123-147.1l4.2-8.7c0-0.1,0-0.2-0.1-0.2h-3.2c-0.1,0-0.2,0.1-0.3,0.2l-4.4,8.4c0,0.1-0.1,0.1-0.1,0v-8.4c0-0.1-0.1-0.2-0.2-0.2
					h-2.8c-0.1,0-0.2,0.1-0.2,0.2v18.9c0,0.1,0.1,0.2,0.2,0.2h2.8c0.1,0,0.2-0.1,0.2-0.2v-3.9c0-0.1,0-0.3,0.1-0.4l1.3-2.4
					c0.1-0.1,0.1-0.1,0.2,0l2.9,6.7c0,0.1,0.2,0.2,0.3,0.2h3.1c0.1,0,0.2-0.1,0.1-0.2l-4.2-9.8C122.9-146.9,122.9-147,123-147.1z"/>
			</g>
		</g>
		<g>
			<path class="st1" d="M194.9-136.9c0,0.1,0.1,0.2,0.2,0.2h8.8c0.1,0,0.2-0.1,0.2-0.2v-2.7c0-0.1-0.1-0.2-0.2-0.2h-5.6
				c-0.1,0-0.2-0.1-0.2-0.2v-4.7c0-0.1,0.1-0.2,0.2-0.2h4.1c0.1,0,0.2-0.1,0.2-0.2v-2.7c0-0.1-0.1-0.2-0.2-0.2h-4.1
				c-0.1,0-0.2-0.1-0.2-0.2v-4.4c0-0.1,0.1-0.2,0.2-0.2h5.6c0.1,0,0.2-0.1,0.2-0.2v-2.7c0-0.1-0.1-0.2-0.2-0.2h-8.8
				c-0.1,0-0.2,0.1-0.2,0.2V-136.9z"/>
			<path class="st1" d="M206.2-156c-0.1,0-0.2,0.1-0.2,0.2v18.9c0,0.1,0.1,0.2,0.2,0.2h2.8c0.1,0,0.2-0.1,0.2-0.2v-5.4
				c0-0.1,0.1-0.2,0.2-0.2h1.5c0.1,0,0.2,0.1,0.2,0.2l1.5,5.4c0,0.1,0.1,0.2,0.2,0.2h2.8c0.1,0,0.2-0.1,0.1-0.2l-1.5-5.4
				c0-0.1,0-0.3,0.1-0.3l1.3-1.5c0.1-0.1,0.1-0.2,0.1-0.3v-9.4c0-0.1-0.1-0.3-0.1-0.3l-1.6-1.6c-0.1-0.1-0.2-0.1-0.3-0.1H206.2z
				 M212.7-146.5c0,0.1-0.1,0.3-0.1,0.3l-0.4,0.4c-0.1,0.1-0.2,0.1-0.3,0.1h-2.4c-0.1,0-0.2-0.1-0.2-0.2v-6.8c0-0.1,0.1-0.2,0.2-0.2
				h2.4c0.1,0,0.3,0.1,0.3,0.1l0.4,0.4c0.1,0.1,0.1,0.2,0.1,0.3V-146.5z"/>
			<path class="st1" d="M229-155.8c0-0.1,0-0.2-0.1-0.2h-3.2c-0.1,0-0.2,0.1-0.3,0.2l-4.4,8.4c0,0.1-0.1,0.1-0.1,0v-8.4
				c0-0.1-0.1-0.2-0.2-0.2H218c-0.1,0-0.2,0.1-0.2,0.2v18.9c0,0.1,0.1,0.2,0.2,0.2h2.8c0.1,0,0.2-0.1,0.2-0.2v-3.9
				c0-0.1,0-0.3,0.1-0.4l1.3-2.4c0.1-0.1,0.1-0.1,0.2,0l2.9,6.7c0,0.1,0.2,0.2,0.3,0.2h3.1c0.1,0,0.2-0.1,0.1-0.2l-4.2-9.8
				c0-0.1,0-0.3,0-0.4L229-155.8z"/>
			<path class="st1" d="M187.3-142.3C187.3-142.2,187.2-142.2,187.3-142.3l-1.5-4.7c0-0.1,0-0.3,0-0.4l2-8.4c0-0.1,0-0.2-0.2-0.2
				h-2.2c-0.1,0-0.2,0.1-0.2,0.2l-1,3.9c0,0.1-0.1,0.1-0.1,0l-0.9-3.9c0-0.1-0.1-0.2-0.2-0.2h-2.2c-0.1,0-0.2,0.1-0.2,0.2l2,8.4
				c0,0.1,0,0.3,0,0.4l-1.2,4.7c0,0.1-0.1,0.1-0.1,0l-2.9-13.5c0-0.1-0.1-0.2-0.2-0.2h-2.9c-0.1,0-0.2,0.1-0.2,0.2l4.3,18.9
				c0,0.1,0.1,0.2,0.2,0.2h2.7c0.1,0,0.2-0.1,0.3-0.2l1.5-4.8c0-0.1,0.1-0.1,0.1,0l1.5,4.8c0,0.1,0.1,0.2,0.3,0.2h2.7
				c0.1,0,0.2-0.1,0.2-0.2l4.5-18.9c0-0.1,0-0.2-0.2-0.2h-2.9c-0.1,0-0.2,0.1-0.2,0.2L187.3-142.3z"/>
		</g>
	</g>
	<path class="st1" d="M316-140h28v2h-28V-140z"/>
	<path class="st1" d="M316-148h28v2h-28V-148z"/>
	<path class="st1" d="M316-156h28v2h-28V-156z"/>
	<path class="st1" d="M316-140h28v2h-28V-140z"/>
	<path class="st0" d="M559-191h-11.1c-0.5-9-7.5-15-15.9-15c-8.8,0-16,7.1-16,16s7.2,16,16,16c8.5,0,15.4-7,16-15h11V-191z
		 M532-176.5c-7.5,0-13.5-6.1-13.5-13.5c0-7.5,6-13.5,13.5-13.5c7.1,0,12.9,5.5,13.4,12.5h-15.8l2.4-2.6l-1.3-1.4l-4.7,5l4.7,5
		l1.3-1.4l-2.4-2.5h15.9C544.9-182,539.1-176.5,532-176.5z"/>
	<path class="st0" d="M433-194.2V-206h-2v11.8c-8,0.5-14.9,7.5-14.9,16c0,8.8,7.2,16,16,16s16-7.2,16-16
		C448-186.8,442-193.7,433-194.2z M432.1-164.7c-7.5,0-13.6-6-13.6-13.5c0-7.1,6.4-12.9,12.4-13.5v15.9l-2.5-2.4l-1.4,1.3l5,4.7
		l5-4.7l-1.5-1.3l-2.6,2.4v-15.9c7,0.5,12.6,6.3,12.6,13.5C445.6-170.8,439.6-164.7,432.1-164.7z"/>
	<path class="st0" d="M644.8-206c-8.5,0-15.4,6-16,15H616v2h12.8c0.5,8,7.5,15,15.9,15c8.8,0,16-7.2,16-16S653.6-206,644.8-206z
		 M644.8-176.5c-7.1,0-12.9-5.5-13.4-12.5h15.8l-2.4,2.5l1.3,1.4l4.7-5l-4.7-5l-1.3,1.5l2.4,2.6h-15.8c0.5-7,6.3-12.5,13.5-12.5
		c7.5,0,13.5,6,13.5,13.5C658.3-182.6,652.2-176.5,644.8-176.5z"/>
	<path class="st0" d="M747.8-190c0-8.8-7.2-16-16.1-16c-8.8,0-15.9,7.2-15.9,16c0,8.5,6.1,15.4,15.1,16v12h2v-12
		C741-174.6,747.8-181.5,747.8-190z M733-176.5v-15.9l2.4,2.4l1.3-1.3l-5-4.7l-5,4.7l1.6,1.3l2.7-2.4v15.9
		c-7-0.5-12.7-6.3-12.7-13.5c0-7.5,6-13.5,13.4-13.5s13.6,6,13.6,13.5C745.4-182.9,739-177.1,733-176.5z"/>
	<path d="M559-91h-11.1c-0.5-9-7.5-15-15.9-15c-8.8,0-16,7.2-16,16s7.2,16,16,16c8.5,0,15.4-7,16-15h11V-91z M532-76.5
		c-7.5,0-13.5-6.1-13.5-13.5s6-13.5,13.5-13.5c7.1,0,12.9,5.5,13.4,12.5h-15.8l2.4-2.6l-1.3-1.4l-4.7,5l4.7,5l1.3-1.4l-2.4-2.6h15.9
		C544.9-82,539.1-76.5,532-76.5z"/>
	<path d="M433-94.2V-106h-2v11.8c-8,0.5-14.9,7.5-14.9,16c0,8.8,7.2,16,16,16s16-7.2,16-16C448-86.7,442-93.7,433-94.2z M432.1-64.7
		c-7.5,0-13.6-6-13.6-13.5c0-7.1,6.4-12.9,12.4-13.5v15.9l-2.5-2.4l-1.4,1.3l5,4.7l5-4.7l-1.5-1.3l-2.6,2.4v-15.9
		c7,0.5,12.6,6.3,12.6,13.5C445.6-70.8,439.6-64.7,432.1-64.7z"/>
	<path d="M644.8-106c-8.5,0-15.4,6-16,15H616v2h12.8c0.5,8,7.5,15,15.9,15c8.8,0,16-7.2,16-16S653.6-106,644.8-106z M644.8-76.5
		c-7.1,0-12.9-5.5-13.4-12.5h15.8l-2.4,2.6l1.3,1.4l4.7-5l-4.7-5l-1.3,1.4l2.4,2.6h-15.8c0.5-7,6.3-12.5,13.5-12.5
		c7.5,0,13.5,6,13.5,13.5C658.3-82.5,652.2-76.5,644.8-76.5z"/>
	<path d="M747.8-90c0-8.8-7.2-16-16.1-16s-15.9,7.2-15.9,16c0,8.5,6.1,15.4,15.1,16v12h2v-12C741-74.5,747.8-81.5,747.8-90z
		 M733-76.5v-15.9l2.4,2.4l1.3-1.3l-5-4.7l-5,4.7l1.6,1.3l2.7-2.4v15.9c-7-0.5-12.7-6.3-12.7-13.5c0-7.5,6-13.5,13.4-13.5
		s13.6,6,13.6,13.5C745.4-82.8,739-77,733-76.5z"/>
	<path class="st0" d="M545-2h-25.4l2.4-2.6L520.7-6L516-1l4.7,5l1.3-1.4L519.6,0H545V-2z"/>
	<path class="st0" d="M616,0h25.4L639,2.6l1.3,1.4l4.7-5l-4.7-5L639-4.6l2.4,2.6H616V0z"/>
	<path class="st0" d="M420-6v25.4l-2.6-2.4l-1.4,1.3l5,4.7l5-4.7l-1.4-1.3l-2.6,2.4V-6H420z"/>
	<path class="st0" d="M722,23V-2.4l2.6,2.4l1.4-1.3L721-6l-5,4.7l1.4,1.3l2.6-2.4V23H722z"/>
	<path class="st0" d="M584,102h-60.8l4.8-5.1l-2.7-2.9l-9.3,10l9.3,10l2.7-2.9l-4.8-5.1H584V102z"/>
	<path class="st0" d="M616,106h60.8l-4.8,5.1l2.7,2.9l9.3-10l-9.3-10l-2.7,2.9l4.8,5.1H616V106z"/>
	<g>
		<path class="st0" d="M845-163.6c0,0.4,0.2,0.8,0.5,1.1c0.7,0.6,1.8,0.6,2.5,0l7-6.7l1.2-1.2c0,0,0.7-0.5,0.7-1.2s-0.7-1.2-0.7-1.2
			l-1.2-1.2l-7-6.7c-0.7-0.6-1.8-0.6-2.5,0c-0.4,0.3-0.5,0.8-0.5,1.2"/>
	</g>
	<path class="st0" d="M135.4-104.1c-0.7,0.3-1.5,0.5-2.3,0.6c0.8-0.5,1.4-1.2,1.7-2.1c-0.8,0.4-1.6,0.8-2.5,0.9
		c-0.7-0.8-1.8-1.3-2.9-1.3c-2.2,0-3.9,1.7-3.9,3.9c0,0.3,0,0.6,0.1,0.9c-3.3-0.2-6.2-1.6-8.2-4c-0.3,0.6-0.5,1.2-0.5,1.9
		c0,1.3,0.7,2.5,1.8,3.2c-0.6,0-1.3-0.2-1.8-0.5c0,0,0,0,0,0c0,1.9,1.4,3.4,3.2,3.8c-0.3,0.1-0.7,0.1-1,0.1c-0.3,0-0.5,0-0.7-0.1
		c0.5,1.5,2,2.3,3.7,2.3c-1.4,1-3.1,1.5-5,1.5c-0.3,0-0.6,0-0.9-0.1c1.8,1.1,3.9,1.9,6.1,1.9c7.3,0,11.2-5.6,11.2-10.7
		c0-0.2,0-0.3,0-0.5C134.1-102.7,134.9-103.4,135.4-104.1z"/>
	<path class="st0" d="M221.8-87.2h-3.8v-9.4H216v-2.9h1.9v-2.2c0-2.6,1.2-4.4,4-4.4h2.7v2.8h-2c-0.9,0-0.9,0.7-0.9,1.5l0,2.2h2.8
		l-0.9,2.9h-1.9L221.8-87.2L221.8-87.2z"/>
	<path class="st0" d="M231.4,4c0,1.5-0.5,2.8-1.6,3.8c-1.1,1.1-2.3,1.6-3.8,1.6c-1.5,0-2.8-0.5-3.8-1.6c-1.1-1.1-1.6-2.3-1.6-3.8
		c0-0.7,0.1-1.4,0.4-2.1h-5v9.2c0,0.8,0.3,1.5,0.9,2.1s1.3,0.9,2.1,0.9H233c0.8,0,1.5-0.3,2.1-0.9c0.6-0.6,0.9-1.3,0.9-2.1V1.9h-5
		C231.2,2.6,231.4,3.3,231.4,4L231.4,4z M228.6,6.7c0.7-0.7,1.1-1.6,1.1-2.7c0-1-0.4-1.9-1.1-2.6c-0.7-0.7-1.6-1.1-2.6-1.1
		c-1,0-1.9,0.4-2.6,1.1S222.2,3,222.2,4c0,1.1,0.4,1.9,1.1,2.7c0.7,0.7,1.6,1.1,2.7,1.1C227,7.8,227.9,7.4,228.6,6.7z M235.1-5.1
		C234.5-5.7,233.8-6,233-6h-14.1c-0.8,0-1.5,0.3-2.1,0.9c-0.6,0.6-0.9,1.3-0.9,2.1v3.3h6.1c1.1-1.1,2.4-1.7,3.9-1.7
		c1.5,0,2.8,0.6,3.9,1.7h6.1v-3.3C235.9-3.9,235.7-4.6,235.1-5.1z"/>
	<path class="st0" d="M116.4,13h3.9V0.5h-3.9V13z M122.7,13V3.3l-0.1-2.8h3.9l0.1,1.7c0.9-1.4,2.1-2.1,3.6-2.1
		c1.4,0,2.6,0.5,3.4,1.5c0.9,1,1.3,2.4,1.3,4.2V13H131V6.1c0-1-0.2-1.7-0.6-2.1c-0.4-0.5-0.9-0.7-1.6-0.7c-0.6,0-1.2,0.2-1.6,0.6
		c-0.4,0.4-0.6,1-0.6,1.8V13H122.7z M120.1-2.2c0.4-0.4,0.7-1,0.7-1.6c0-0.6-0.2-1.2-0.7-1.6c-0.4-0.4-1-0.6-1.7-0.6
		c-0.7,0-1.3,0.2-1.7,0.6c-0.4,0.4-0.7,1-0.7,1.6c0,0.6,0.2,1.2,0.6,1.6c0.4,0.4,1,0.6,1.7,0.6h0C119.1-1.6,119.6-1.8,120.1-2.2z"/>
	<polygon class="st0" points="337.2,-104.6 335.8,-106 326.6,-96.8 317.4,-106 316,-104.6 325.2,-95.4 316,-86.2 317.4,-84.8 
		326.6,-94 335.8,-84.8 337.2,-86.2 328,-95.4 	"/>
	<g>
		<path class="st0" d="M848.2-61L848.2-61c-1.4,0-2.5-1.1-2.5-2.5v-13.9c0-1.4,1.1-2.5,2.5-2.5l0,0c1.4,0,2.5,1.1,2.5,2.5v13.9
			C850.7-62.2,849.6-61,848.2-61z"/>
		<path class="st0" d="M854.8-61L854.8-61c-1.4,0-2.5-1.1-2.5-2.5v-13.9c0-1.4,1.1-2.5,2.5-2.5l0,0c1.4,0,2.5,1.1,2.5,2.5v13.9
			C857.3-62.2,856.2-61,854.8-61z"/>
	</g>
</g>
</svg>
