<svg xmlns="http://www.w3.org/2000/svg" viewBox="0 0 255.23 128.11"><title>line</title><g style="isolation:isolate"><g id="Layer_2" data-name="Layer 2"><rect width="255.23" height="128.11" style="fill:#fff"/></g><g id="Layer_4" data-name="Layer 4"><path d="M630.59,89.92a16.56,16.56,0,0,1,16.57-16.4,50.76,50.76,0,0,0,51.45-50,16.37,16.37,0,1,1,32.74.38c-0.54,46.11-38.47,83.38-84.58,82.84A16.56,16.56,0,0,1,630.59,89.92Z" transform="translate(-553.71)" style="fill:#2d2e83;mix-blend-mode:multiply"/><path d="M711.22,58.15a6.68,6.68,0,0,1,6.64-6.82H758a7,7,0,0,1,7,6.82,6.82,6.82,0,0,1-7,6.64H717.86A6.52,6.52,0,0,1,711.22,58.15Z" transform="translate(-553.71)" style="fill:#ff2441;mix-blend-mode:multiply"/></g></g></svg>