<?xml version="1.0" encoding="utf-8"?>
<!-- Generator: Adobe Illustrator 19.2.1, SVG Export Plug-In . SVG Version: 6.00 Build 0)  -->
<svg version="1.1" id="Layer_1" xmlns="http://www.w3.org/2000/svg" xmlns:xlink="http://www.w3.org/1999/xlink" x="0px" y="0px"
	 viewBox="0 0 2880 2000" style="enable-background:new 0 0 2880 2000;" xml:space="preserve">
<style type="text/css">
	.st0{fill:#FFFFFF;}
	.st1{fill:#3A1F11;}
	.st2{fill:#FF2441;}
	.st3{fill:#BDCEDF;}
	.st4{fill:#8ADCFF;}
	.st5{fill:#2441FF;}
	.st6{fill:#2D2E83;}
</style>
<rect y="8" class="st0" width="2880" height="1984"/>
<circle class="st1" cx="7945.1" cy="2535.9" r="0"/>
<g>
	<path class="st2" d="M182.1,1370.1c0-50.3,42.2-90.1,91.3-90.1s88.9,39.8,88.9,90.1c0,152.1,124,274.9,276.1,276.1
		c49.1,0,88.9,39.8,88.9,88.9l0,0c0,49.1-39.8,90.1-88.9,90.1C388,1825.1,182.1,1620.4,182.1,1370.1z"/>
	<path class="st3" d="M226.9,1381.5c0-32.4,27.6-60.2,58.6-60.2c234.4,0,425.7-188.1,425.7-421.1c0-32.4,24.6-60.2,58.6-60.2
		c30.8,0,58.6,27.8,58.6,60.2c0,297.8-243.7,539.9-542.9,539.9C254.5,1440.1,226.9,1413.9,226.9,1381.5z"/>
	<path class="st4" d="M1060.1,1060.7L1060.1,1060.7V887.3c0-26.2,21.1-47.3,47.2-47.3c26.1,0,47.2,21.1,47.2,47.3l0,0v173.3
		c0,26.7-21.1,47.2-47.2,47.2C1081.2,1107.9,1060.1,1087.4,1060.1,1060.7z"/>
	<path class="st5" d="M705,1552.9c0-13,9.9-24.2,23.6-24.2h142.9c13.7,0,24.8,11.2,24.8,24.2c0,13-11.1,23.6-24.8,23.6H728.6
		C714.9,1576.5,705,1565.9,705,1552.9z"/>
	<path class="st5" d="M558.6,1531.3c-48.5-0.6-88.5-40.3-87.9-88.8c1.8-150.3-118.1-274.2-268.3-275.9
		c-49.7-0.6-88.5-40.3-87.9-88.8c0.6-48.5,40.3-87.3,90-86.8c247.3,2.9,447.1,206.3,444.2,453.6C648,1493,607.1,1531.9,558.6,1531.3
		z"/>
</g>
<g>
	<g>
		<path class="st5" d="M2342.8,187.6c26.2,0,48.7,22.4,48.7,47.5c0,189.8,152.3,344.7,341,344.7c26.2,0,48.7,19.9,48.7,47.4
			c0,24.9-22.5,47.5-48.7,47.5c-241.1,0-437.2-197.4-437.2-439.6C2295.4,209.9,2316.6,187.6,2342.8,187.6z"/>
	</g>
	<g>
		<path class="st4" d="M2450.6,840L2450.6,840V699.6c0-21.2,17.1-38.3,38.2-38.3c21.1,0,38.2,17.1,38.2,38.3l0,0V840
			c0,21.6-17.1,38.2-38.2,38.2C2467.7,878.2,2450.6,861.6,2450.6,840z"/>
	</g>
	<g>
		<path class="st3" d="M2607,90.7v140.4c0,21.2-18.1,38.3-39.3,38.3c-21.1,0-38.2-17.1-38.2-38.3V90.7c0-21.6,17.1-38.2,38.2-38.2
			C2588.9,52.5,2607,69.1,2607,90.7z"/>
	</g>
	<g>
		<path class="st6" d="M2500.9,716.6c0,10.6-8,19.1-19.1,19.1h-587.7c-10.1,0-19.1-8.6-19.1-19.1c0-10.6,9.1-19.6,19.1-19.6h587.7
			C2492.9,697,2500.9,706,2500.9,716.6z"/>
	</g>
	<g>
		<path class="st2" d="M1976.9,520.7c0.5-39.3,32.7-71.7,71.9-71.2c121.7,1.4,222-95.6,223.4-217.3c0.5-40.2,32.7-71.7,71.9-71.2
			s70.7,32.6,70.2,72.9c-2.3,200.2-167,362.1-367.3,359.7C2007.8,593.1,1976.4,559.9,1976.9,520.7z"/>
	</g>
</g>
<g>
	<g>
		<path class="st3" d="M396.4,310.8c25.3,0,45.2,21.2,45.2,45.8s-20,44.6-45.2,44.6c-76.4,0-138,62.3-138.7,138.7
			c0,24.7-20,44.6-44.6,44.6l0,0c-24.7,0-45.2-20-45.2-44.6C167.8,414.2,270.6,310.8,396.4,310.8z"/>
	</g>
	<g>
		<path class="st5" d="M399.9,323c21.4,0,39.8,18.3,39.8,38.7c0,154.8,124.3,281.2,278.1,281.2c21.4,0,39.8,16.3,39.8,38.7
			c0,20.3-18.4,38.7-39.8,38.7c-196.7,0-356.6-161-356.6-358.6C361.2,341.2,378.5,323,399.9,323z"/>
	</g>
	<g>
		<path class="st4" d="M411.5,680.8L411.5,680.8h93c14,0,25.4,11.3,25.4,25.3c0,14-11.3,25.3-25.4,25.3l0,0h-93
			c-14.3,0-25.3-11.3-25.3-25.3C386.2,692.1,397.2,680.8,411.5,680.8z"/>
	</g>
	<g>
		<path class="st5" d="M315.1,598.6c7.3,0,13.6,5.6,13.6,13.3v80.3c0,7.7-6.3,13.9-13.6,13.9c-7.3,0-13.3-6.3-13.3-13.9v-80.3
			C301.9,604.2,307.8,598.6,315.1,598.6z"/>
	</g>
	<g>
		<path class="st2" d="M325.6,510.6c0.4-31,25.8-56.6,56.8-56.3c96.2,1.1,175.4-75.6,176.6-171.7c0.4-31.8,25.8-56.6,56.8-56.3
			c31,0.4,55.9,25.8,55.5,57.6c-1.9,158.2-132,286.1-290.2,284.3C350.1,567.8,325.3,541.6,325.6,510.6z"/>
	</g>
</g>
<g>
	<g>
		<path class="st4" d="M1069,172.9c0-8.8,6.7-16,16-16h491.5c8.4,0,16,7.2,16,16c0,8.8-7.6,16.4-16,16.4H1085
			C1075.7,189.3,1069,181.8,1069,172.9z"/>
	</g>
	<g>
		<path class="st3" d="M1203,619.1c-21.9,0-40.8-18.7-40.8-39.7c0-158.7-127.4-288.2-285.1-288.2c-21.9,0-40.7-16.7-40.7-39.7
			c0-20.9,18.8-39.7,40.7-39.7c201.6,0,365.6,165,365.6,367.6C1242.7,600.4,1225,619.1,1203,619.1z"/>
	</g>
	<g>
		<path class="st2" d="M1368,581.7c0.4-33.2,27.6-60.7,60.9-60.3c103,1.2,187.9-80.9,189.1-183.9c0.4-34.1,27.6-60.7,60.9-60.3
			c33.2,0.4,59.9,27.6,59.5,61.7c-2,169.5-141.4,306.4-310.9,304.5C1394.2,643,1367.6,614.9,1368,581.7z"/>
	</g>
	<g>
		<path class="st4" d="M1505.8,341.3c-0.4,32.6-27.1,59.5-59.7,59.1c-101-1.2-184.2,79.4-185.4,180.3c-0.4,33.4-27.1,59.5-59.7,59.1
			c-32.6-0.4-58.7-27.1-58.3-60.5c1.9-166.2,138.6-300.5,304.8-298.5C1480.1,281.2,1506.2,308.7,1505.8,341.3z"/>
	</g>
	<g>
		<path class="st6" d="M1046.9,188.7L1046.9,188.7V71.9c0-17.6,14.2-31.9,31.8-31.9c17.6,0,31.8,14.2,31.8,31.9l0,0v116.9
			c0,18-14.2,31.8-31.8,31.8C1061.1,220.6,1046.9,206.8,1046.9,188.7z"/>
	</g>
	<g>
		<path class="st2" d="M982.3,682L982.3,682V565.1c0-17.6,14.2-31.9,31.8-31.9s31.8,14.2,31.8,31.9l0,0V682
			c0,18-14.2,31.8-31.8,31.8S982.3,700,982.3,682z"/>
	</g>
</g>
<g>
	<g>
		<path class="st5" d="M1253.2,1850.4c0-6.8,5.1-12.2,12.2-12.2h375.9c6.4,0,12.2,5.5,12.2,12.2c0,6.8-5.8,12.5-12.2,12.5h-375.9
			C1258.3,1862.9,1253.2,1857.1,1253.2,1850.4z"/>
	</g>
	<g>
		<path class="st4" d="M1705.5,1826.3c-16.8,0-31.2-14.3-31.2-30.4c0-121.4-97.4-220.5-218.1-220.5c-16.8,0-31.2-12.8-31.2-30.3
			c0-16,14.4-30.4,31.2-30.4c154.2,0,279.6,126.2,279.6,281.2C1735.8,1811.9,1722.3,1826.3,1705.5,1826.3z"/>
	</g>
	<g>
		<path class="st2" d="M1262.3,1778.4c-26.1,0-46.6-21.8-46.6-47.3s20.6-46,46.6-46c78.8,0,142.4-64.2,143-143c0-25.4,20.6-46,46-46
			l0,0c25.4,0,46.6,20.6,46.6,46C1497.9,1671.7,1391.9,1778.4,1262.3,1778.4z"/>
	</g>
	<g>
		<path class="st6" d="M1356.9,1507.5c-6.8,0-12.6-5.1-12.6-12.2v-74c0-7.1,5.8-12.9,12.6-12.9c6.8,0,12.2,5.8,12.2,12.9v74
			C1369.2,1502.4,1363.7,1507.5,1356.9,1507.5z"/>
	</g>
	<g>
		<path class="st3" d="M1042.5,1291.8c25.1,0.3,45.8,20.9,45.5,46c-0.9,77.8,61.2,142,139,142.9c25.7,0.3,45.8,20.9,45.6,46
			c-0.3,25.1-20.9,45.2-46.6,44.9c-128.1-1.5-231.6-106.8-230.1-234.9C996.2,1311.7,1017.4,1291.6,1042.5,1291.8z"/>
	</g>
</g>
<g>
	<g>
		<path class="st2" d="M1520.8,1237.8c0-20.5,17.5-38,37-38c148.2,0,269.1-118.9,269.1-266.2c0-20.5,15.6-38,37-38
			c19.5,0,37,17.6,37,38c0,188.2-154.1,341.3-343.1,341.3C1538.3,1274.8,1520.8,1258.2,1520.8,1237.8z"/>
	</g>
	<g>
		<path class="st4" d="M1977.6,1386.5L1977.6,1386.5V1277c0-16.5,13.4-29.9,29.8-29.9c16.5,0,29.8,13.4,29.8,29.9l0,0v109.6
			c0,16.9-13.4,29.8-29.8,29.8C1990.9,1416.4,1977.6,1403.4,1977.6,1386.5z"/>
	</g>
	<g>
		<path class="st3" d="M1520.8,1022.8V913.2c0-16.5,14.2-29.9,30.6-29.9c16.5,0,29.8,13.4,29.8,29.9v109.6
			c0,16.9-13.4,29.8-29.8,29.8C1535,1052.6,1520.8,1039.7,1520.8,1022.8z"/>
	</g>
	<g>
		<path class="st5" d="M1604.3,968.2c0-8.2,6.3-15.3,14.9-15.3h90.3c8.7,0,15.7,7.1,15.7,15.3c0,8.2-7,14.9-15.7,14.9h-90.3
			C1610.6,983.1,1604.3,976.4,1604.3,968.2z"/>
	</g>
	<g>
		<path class="st6" d="M1730.5,1332.4c-30.7-0.4-55.9-25.5-55.6-56.1c1.1-95-74.6-173.3-169.6-174.4c-31.4-0.4-55.9-25.5-55.6-56.1
			c0.4-30.7,25.5-55.2,56.9-54.8c156.3,1.8,282.6,130.4,280.8,286.7C1787,1308.2,1761.1,1332.8,1730.5,1332.4z"/>
	</g>
</g>
<g>
	<g>
		<path class="st3" d="M2774.4,1384.3c0,50.3-42.2,90.1-91.3,90.1c-49.1,0-88.9-39.8-88.9-90.1c0-152.1-124-274.9-276.1-276.1
			c-49.1,0-88.9-39.8-88.9-88.9l0,0c0-49.1,39.8-90.1,88.9-90.1C2568.5,929.3,2774.4,1133.9,2774.4,1384.3z"/>
	</g>
	<g>
		<path class="st6" d="M2729.5,1372.8c0,32.4-27.6,60.2-58.6,60.2c-234.4,0-425.7,188.1-425.7,421.1c0,32.4-24.6,60.2-58.6,60.2
			c-30.8,0-58.6-27.8-58.6-60.2c0-297.8,243.7-539.9,542.9-539.9C2701.9,1314.2,2729.5,1340.4,2729.5,1372.8z"/>
	</g>
	<g>
		<path class="st2" d="M2729.5,1712.9v173.3c0,26.2-22.4,47.3-48.5,47.3c-26.1,0-47.2-21.1-47.2-47.3v-173.3
			c0-26.7,21.1-47.2,47.2-47.2C2707.1,1665.7,2729.5,1686.2,2729.5,1712.9z"/>
	</g>
	<g>
		<path class="st5" d="M1992,1113.8c0,13-9.9,24.2-23.6,24.2h-142.9c-13.7,0-24.8-11.2-24.8-24.2c0-13,11.1-23.6,24.8-23.6h142.9
			C1982.1,1090.2,1992,1100.8,1992,1113.8z"/>
	</g>
	<g>
		<path class="st4" d="M2397.8,1223.1c48.5,0.6,88.5,40.3,87.9,88.8c-1.8,150.3,118.1,274.1,268.3,275.9
			c49.7,0.6,88.5,40.3,87.9,88.8c-0.6,48.5-40.3,87.3-90,86.7c-247.3-2.9-447.1-206.3-444.2-453.6
			C2308.4,1261.3,2349.3,1222.5,2397.8,1223.1z"/>
	</g>
</g>
</svg>
