<svg id="Layer_1" data-name="Layer 1" xmlns="http://www.w3.org/2000/svg" viewBox="0 0 129.23 63.91"><title>se</title><rect width="129.23" height="63.91" style="fill:#fff"/><path d="M57.82,57.28a0.5,0.5,0,0,0-.49-0.34,0.4,0.4,0,0,0-.46.38,0.41,0.41,0,0,0,.34.39l0.52,0.18a1.2,1.2,0,0,1,1,1.19,1.26,1.26,0,0,1-1.4,1.24A1.35,1.35,0,0,1,56,59.47a0.42,0.42,0,0,1,.41-0.57,0.41,0.41,0,0,1,.41.33,0.51,0.51,0,0,0,.55.34,0.47,0.47,0,0,0,.56-0.42,0.43,0.43,0,0,0-.33-0.43l-0.62-.22A1.15,1.15,0,0,1,56,57.37a1.2,1.2,0,0,1,1.31-1.16,1.27,1.27,0,0,1,1.29.79,0.41,0.41,0,0,1-.4.56A0.44,0.44,0,0,1,57.82,57.28Z" transform="translate(0 -14.49)" style="fill:#141414"/><path d="M59.19,59.86V56.54a0.42,0.42,0,0,1,.85,0v1a0.9,0.9,0,0,1,.67-0.27,1,1,0,0,1,1,1.11v1.52a0.42,0.42,0,0,1-.85,0V58.39A0.38,0.38,0,0,0,60.45,58a0.4,0.4,0,0,0-.41.44v1.46A0.42,0.42,0,0,1,59.19,59.86Z" transform="translate(0 -14.49)" style="fill:#141414"/><path d="M65.82,57.31H66V56.89a0.4,0.4,0,0,1,.42-0.42,0.41,0.41,0,0,1,.43.42v0.42H67A0.36,0.36,0,0,1,67,58H66.84v1.83a0.41,0.41,0,0,1-.43.42A0.4,0.4,0,0,1,66,59.86V58H65.82A0.36,0.36,0,0,1,65.82,57.31Z" transform="translate(0 -14.49)" style="fill:#141414"/><path d="M67.86,57.31H68V56.89a0.4,0.4,0,0,1,.42-0.42,0.41,0.41,0,0,1,.43.42v0.42h0.19a0.36,0.36,0,0,1,0,.71H68.89v1.83a0.41,0.41,0,0,1-.43.42A0.4,0.4,0,0,1,68,59.86V58H67.86A0.36,0.36,0,0,1,67.86,57.31Z" transform="translate(0 -14.49)" style="fill:#141414"/><path d="M71.95,59.7a1.1,1.1,0,0,1-1.09.61,1.15,1.15,0,0,1-1.24-1.21V58.43a1.15,1.15,0,0,1,1.22-1.21A1.13,1.13,0,0,1,72,58.43v0.08a0.39,0.39,0,0,1-.42.42H70.45v0.25a0.4,0.4,0,0,0,.43.44,0.44,0.44,0,0,0,.39-0.22,0.4,0.4,0,0,1,.36-0.22A0.37,0.37,0,0,1,71.95,59.7Zm-1.5-1.33h0.77v0a0.39,0.39,0,1,0-.77,0v0Z" transform="translate(0 -14.49)" style="fill:#141414"/><path d="M73.32,56.54v3.32a0.42,0.42,0,0,1-.85,0V56.54A0.42,0.42,0,0,1,73.32,56.54Z" transform="translate(0 -14.49)" style="fill:#141414"/><path d="M65.21,60.28A0.48,0.48,0,0,1,64.79,60l-0.48-.82a0.48,0.48,0,1,1,.82-0.49l0.48,0.82A0.48,0.48,0,0,1,65.21,60.28Z" transform="translate(0 -14.49)" style="fill:#141414"/><path d="M64.13,59.36a0.24,0.24,0,0,1-.06,0,1,1,0,0,1-.56.21h0s-0.08-.12-0.12-0.12a0.43,0.43,0,0,0-.26.81h0.16A1.6,1.6,0,0,0,64.54,60Z" transform="translate(0 -14.49)" style="fill:#141414"/><path d="M62.64,59.79a0.74,0.74,0,0,1,.51-0.7l0-.07a0.65,0.65,0,0,1-.07-0.5,0.48,0.48,0,0,0-.93-0.24A1.61,1.61,0,0,0,62.66,60,0.74,0.74,0,0,1,62.64,59.79Z" transform="translate(0 -14.49)" style="fill:#141414"/><path d="M33.45,25a2.31,2.31,0,0,0-2.24-1.58c-1.33,0-2.11.72-2.11,1.72a1.89,1.89,0,0,0,1.58,1.77l2.38,0.83c2.38,0.83,4.65,2,4.65,5.43s-2.52,5.68-6.4,5.68c-3.21,0-5.54-1.41-6.37-3.82a1.94,1.94,0,0,1,1.86-2.6A1.9,1.9,0,0,1,28.69,34a2.33,2.33,0,0,0,2.52,1.58c1.69,0,2.58-.8,2.58-1.91a2,2,0,0,0-1.52-2l-2.85-1c-2.77-1-4.21-2.58-4.21-5.21,0-2.83,2.22-5.32,6-5.32,3,0,5.15,1.36,5.93,3.6a1.88,1.88,0,0,1-1.83,2.58A2,2,0,0,1,33.45,25Z" transform="translate(0 -14.49)" style="fill:#141414"/><path d="M39.74,36.8V21.59a1.94,1.94,0,0,1,3.88,0v4.35a4.12,4.12,0,0,1,3-1.22c3.08,0,4.43,2.16,4.43,5.1v7a1.94,1.94,0,0,1-3.88,0V30.1a1.75,1.75,0,0,0-1.75-2,1.83,1.83,0,0,0-1.86,2v6.7A1.94,1.94,0,0,1,39.74,36.8Z" transform="translate(0 -14.49)" style="fill:#141414"/><path d="M70.06,25.14h0.83V23.2a1.82,1.82,0,0,1,1.91-1.91,1.86,1.86,0,0,1,2,1.91v1.94h0.89a1.63,1.63,0,0,1,0,3.27H74.77V36.8a1.86,1.86,0,0,1-2,1.91,1.82,1.82,0,0,1-1.91-1.91V28.41H70.06A1.63,1.63,0,0,1,70.06,25.14Z" transform="translate(0 -14.49)" style="fill:#141414"/><path d="M79.42,25.14h0.83V23.2a1.82,1.82,0,0,1,1.91-1.91,1.86,1.86,0,0,1,2,1.91v1.94H85a1.63,1.63,0,0,1,0,3.27H84.13V36.8a1.86,1.86,0,0,1-2,1.91,1.82,1.82,0,0,1-1.91-1.91V28.41H79.42A1.63,1.63,0,0,1,79.42,25.14Z" transform="translate(0 -14.49)" style="fill:#141414"/><path d="M98.13,36.08c-0.69,1.8-2.69,2.77-5,2.77-3.44,0-5.68-2.16-5.68-5.54v-3a5.25,5.25,0,0,1,5.6-5.54,5.18,5.18,0,0,1,5.43,5.54v0.39a1.78,1.78,0,0,1-1.91,1.91H91.26v1.16a1.84,1.84,0,0,0,2,2,2,2,0,0,0,1.77-1,1.81,1.81,0,0,1,1.63-1A1.7,1.7,0,0,1,98.13,36.08ZM91.26,30H94.8V29.79a1.79,1.79,0,1,0-3.55,0V30Z" transform="translate(0 -14.49)" style="fill:#141414"/><path d="M104.41,21.59V36.8a1.94,1.94,0,0,1-3.88,0V21.59A1.94,1.94,0,0,1,104.41,21.59Z" transform="translate(0 -14.49)" style="fill:#141414"/><path d="M58.74,38.68a2.19,2.19,0,0,1-.56-0.07,7.37,7.37,0,0,1-5.25-9,2.19,2.19,0,1,1,4.24,1.12,3,3,0,0,0,2.13,3.66A2.19,2.19,0,0,1,58.74,38.68Z" transform="translate(0 -14.49)" style="fill:#ee3147"/><path d="M60.06,38.85a7.36,7.36,0,0,1-1.88-.25,2.16,2.16,0,0,1-1.51-2.68c0.31-1.17,2.63-1.56,2.63-1.56A3,3,0,0,0,63,32.24c0.31-1.17,1.51-.93,2.68-0.62,0.46,0.12.59-.31,0.87,0a1.85,1.85,0,0,1,.69,1.7A7.39,7.39,0,0,1,60.06,38.85Z" transform="translate(0 -14.49)" style="fill:#bdcede"/><path d="M67.27,38.73a2.19,2.19,0,0,1-1.89-1.08l-2.2-3.73A2.19,2.19,0,1,1,67,31.69l2.2,3.73A2.19,2.19,0,0,1,67.27,38.73Z" transform="translate(0 -14.49)" style="fill:#2f2f82"/><path d="M65.66,30.68a2.25,2.25,0,0,0-.43-0.07H65a2.2,2.2,0,0,0-1.81,3.31L65,37a7.34,7.34,0,0,0,2.2-3.6A2.19,2.19,0,0,0,65.66,30.68Z" transform="translate(0 -14.49)" style="fill:#24205b"/><circle cx="58.74" cy="22" r="2.19" style="fill:#bb1f3d"/></svg>